<svg width="32" height="32" viewBox="0 0 32 32" fill="none" xmlns="http://www.w3.org/2000/svg">
<path d="M2 17.6721V14.3281L13.86 8.12805V11.2001L5.1 15.9391L13.862 20.7741V23.8741L2 17.6721ZM29.814 8.79205L19.465 23.2291H15.912L26.281 8.79105L29.814 8.79205ZM26.947 21.5001C27.0642 21.5019 27.1805 21.478 27.2874 21.4299C27.3944 21.3819 27.4895 21.3109 27.566 21.2221C27.7378 21.018 27.8264 20.7566 27.814 20.4901C27.8241 20.2175 27.7361 19.9503 27.566 19.7371C27.4943 19.6439 27.4021 19.5684 27.2966 19.5165C27.1911 19.4646 27.0751 19.4376 26.9575 19.4376C26.8399 19.4376 26.7239 19.4646 26.6184 19.5165C26.5129 19.5684 26.4207 19.6439 26.349 19.7371C26.1789 19.9503 26.0909 20.2175 26.101 20.4901C26.0893 20.7546 26.1735 21.0145 26.338 21.2221C26.4115 21.3118 26.5047 21.3835 26.6102 21.4317C26.7158 21.4799 26.831 21.5033 26.947 21.5001ZM29.133 22.5421C28.5361 23.0815 27.7597 23.3794 26.9551 23.3776C26.1505 23.3757 25.3754 23.0743 24.781 22.5321C24.5075 22.2653 24.2902 21.9464 24.1418 21.5944C23.9934 21.2423 23.917 20.8641 23.917 20.4821C23.917 20.1 23.9934 19.7218 24.1418 19.3697C24.2902 19.0177 24.5075 18.6988 24.781 18.4321C25.3752 17.8882 26.1515 17.5866 26.957 17.5866C27.7625 17.5866 28.5388 17.8882 29.133 18.4321C29.4119 18.6957 29.633 19.0144 29.7823 19.368C29.9315 19.7216 30.0057 20.1023 30 20.4861C30.0074 20.8697 29.9341 21.2505 29.7849 21.604C29.6357 21.9575 29.414 22.2757 29.134 22.5381L29.133 22.5421ZM18.821 13.0611C18.9382 13.0629 19.0545 13.039 19.1614 12.9909C19.2684 12.9429 19.3635 12.8719 19.44 12.7831C19.6118 12.579 19.7004 12.3176 19.688 12.0511C19.6981 11.7785 19.6101 11.5113 19.44 11.2981C19.368 11.2052 19.2758 11.1301 19.1703 11.0784C19.0648 11.0268 18.9489 10.9999 18.8315 10.9999C18.714 10.9999 18.5982 11.0268 18.4927 11.0784C18.3872 11.1301 18.295 11.2052 18.223 11.2981C18.0529 11.5113 17.9649 11.7785 17.975 12.0511C17.9633 12.3156 18.0475 12.5755 18.212 12.7831C18.2856 12.8728 18.3787 12.9445 18.4842 12.9927C18.5898 13.0409 18.705 13.0643 18.821 13.0611ZM21.007 14.1001C20.4101 14.6395 19.6337 14.9374 18.8291 14.9356C18.0245 14.9337 17.2494 14.6323 16.655 14.0901C16.3815 13.8233 16.1642 13.5044 16.0158 13.1524C15.8674 12.8003 15.791 12.4221 15.791 12.0401C15.791 11.658 15.8674 11.2798 16.0158 10.9277C16.1642 10.5757 16.3815 10.2569 16.655 9.99005C17.2492 9.44622 18.0255 9.1446 18.831 9.1446C19.6365 9.1446 20.4128 9.44622 21.007 9.99005C21.2869 10.2548 21.5084 10.575 21.6576 10.9302C21.8067 11.2854 21.88 11.6679 21.873 12.0531C21.8797 12.4358 21.806 12.8157 21.6569 13.1683C21.5077 13.5209 21.2863 13.8383 21.007 14.1001Z" fill="#90A93A"/>
</svg>
