<svg width="128" height="128" viewBox="0 0 128 128" fill="none" xmlns="http://www.w3.org/2000/svg">
<path d="M27.7581 20.421C20.4061 30.986 21.3211 44.733 26.9381 55.961L27.3491 56.759L27.6121 57.265L27.7761 57.556L28.0691 58.08C28.2431 58.3867 28.4217 58.693 28.6051 58.999L28.9111 59.503C29.1137 59.829 29.3211 60.1534 29.5331 60.476L29.7981 60.885C30.0907 61.3224 30.3911 61.756 30.6991 62.186L30.7251 62.219L30.8771 62.424C31.1444 62.792 31.4181 63.1564 31.6981 63.517L32.0071 63.91C32.2564 64.2227 32.5094 64.534 32.7661 64.844L33.0561 65.19C33.4011 65.596 33.7541 66.002 34.1131 66.398L34.1341 66.42L34.1751 66.465C34.5261 66.848 34.8851 67.223 35.2501 67.598L35.5941 67.945C35.8767 68.2284 36.1627 68.5087 36.4521 68.786L36.8031 69.12C37.1891 69.4847 37.5811 69.8414 37.9791 70.19L37.9971 70.206L38.2021 70.38C38.5534 70.6847 38.9094 70.9854 39.2701 71.282L39.7121 71.635C40.0061 71.8704 40.3027 72.1024 40.6021 72.331L41.0791 72.692C41.4091 72.9347 41.7421 73.1737 42.0781 73.409L42.4411 73.667L42.5421 73.739C42.8601 73.959 43.1871 74.17 43.5121 74.381L43.9321 74.661C44.4321 74.976 44.9391 75.289 45.4511 75.591L45.8711 75.828C46.2477 76.0454 46.6277 76.2584 47.0111 76.467L47.6421 76.793L48.4581 77.217L48.6461 77.308L48.9801 77.469C49.4067 77.6737 49.8377 77.8734 50.2731 78.068L50.5461 78.19C51.0441 78.408 51.5467 78.6174 52.0541 78.818L52.4221 78.962C52.8921 79.1447 53.3664 79.3204 53.8451 79.489L54.0241 79.551C54.5481 79.735 55.0781 79.904 55.6111 80.071L55.9941 80.185C56.5361 80.349 57.0731 80.543 57.6321 80.647C93.1851 87.13 103.512 59.283 103.512 59.283C94.8381 70.583 79.4431 73.563 64.8561 70.245C64.3031 70.12 63.7671 69.947 63.2281 69.789L62.8221 69.665C62.2963 69.5046 61.7736 69.3346 61.2541 69.155L61.0391 69.078C60.5759 68.9138 60.1152 68.7428 59.6571 68.565L59.2691 68.413C58.7671 68.215 58.2697 68.0084 57.7771 67.793L57.4791 67.66C57.057 67.4703 56.6373 67.2753 56.2201 67.075L55.8561 66.9C55.5291 66.741 55.2061 66.572 54.8821 66.405L54.2331 66.064C53.8391 65.8534 53.4501 65.6354 53.0661 65.41L52.6721 65.191C52.1606 64.8882 51.6539 64.5775 51.1521 64.259L50.7421 63.986C50.378 63.7521 50.0176 63.5124 49.6611 63.267L49.3121 63.022C48.9685 62.78 48.6278 62.534 48.2901 62.284L47.8371 61.941C47.5264 61.7044 47.2191 61.464 46.9151 61.22L46.5041 60.89C46.1161 60.5727 45.7331 60.2497 45.3551 59.921L45.2291 59.816C44.821 59.456 44.4183 59.09 44.0211 58.718L43.6811 58.39C43.3865 58.1117 43.0971 57.828 42.8131 57.539L42.4731 57.199C42.1111 56.829 41.7561 56.4537 41.4081 56.073L41.3551 56.016C40.9871 55.6134 40.627 55.2037 40.2751 54.787L39.9921 54.451C39.7287 54.1343 39.4696 53.8139 39.2151 53.49L38.9301 53.135C38.6251 52.7409 38.3258 52.3426 38.0321 51.94C29.9341 40.893 27.0241 25.657 33.4971 13.145M50.5781 11.519C45.2621 19.169 45.5501 29.412 49.6981 37.502C50.3927 38.8617 51.1782 40.173 52.0491 41.427C52.8451 42.57 53.7291 43.928 54.7861 44.845C55.1691 45.267 55.5701 45.679 55.9791 46.083L56.2931 46.394C56.6891 46.78 57.0951 47.1574 57.5111 47.526L57.5611 47.569L57.5731 47.581C58.0351 47.986 58.5121 48.375 58.9961 48.759L59.3191 49.011C59.8051 49.383 60.3001 49.749 60.8081 50.098L60.8511 50.131L61.5311 50.578L61.8531 50.791C62.2157 51.0244 62.5837 51.2497 62.9571 51.467L63.1131 51.559C63.4357 51.7444 63.7607 51.926 64.0881 52.104L64.4351 52.284L65.1171 52.638L65.2201 52.685C65.6874 52.9164 66.1621 53.1374 66.6441 53.348L66.9581 53.478C67.3441 53.642 67.7331 53.7997 68.1251 53.951L68.6251 54.135C68.9811 54.267 69.3371 54.388 69.6971 54.508L70.1811 54.663C70.6921 54.821 71.1981 55.022 71.7301 55.111C99.1801 59.658 105.517 38.523 105.517 38.523C99.8051 46.751 88.7421 50.676 76.9371 47.612C76.4153 47.4744 75.8969 47.3247 75.3821 47.163L74.9151 47.012C74.5503 46.8946 74.1879 46.7699 73.8281 46.638L73.3371 46.455C72.9442 46.3037 72.5538 46.146 72.1661 45.982L71.8511 45.849C71.3685 45.6385 70.891 45.4164 70.4191 45.183L69.7011 44.818L69.2871 44.605C68.9804 44.4384 68.6774 44.267 68.3781 44.091L68.1611 43.968C67.7898 43.7517 67.423 43.5276 67.0611 43.296L66.7291 43.075L66.0171 42.603C65.5135 42.2537 65.0187 41.8919 64.5331 41.518L64.1991 41.254C59.0321 37.175 54.9361 31.599 52.9891 25.277C50.9481 18.72 51.3881 11.36 54.9241 5.38603M69.7711 4.86803C66.6371 9.48003 66.3291 15.209 68.5041 20.303C70.7971 25.71 75.4961 29.951 80.9811 31.963L81.6631 32.198L81.9631 32.294C82.2861 32.396 82.6071 32.514 82.9411 32.576C98.0981 35.505 102.209 24.799 103.303 23.222C99.7021 28.407 93.6501 29.652 86.2241 27.849C85.6166 27.6938 85.0172 27.5086 84.4281 27.294C83.7017 27.0363 82.9894 26.7405 82.2941 26.408C80.9742 25.7738 79.721 25.0093 78.5531 24.126C71.9081 19.084 67.7811 9.46703 72.1171 1.63403" fill="#0868AC"/>
<path d="M66.3591 96.295H62.133C62.0137 96.3002 61.8991 96.3435 61.8061 96.4185C61.713 96.4936 61.6465 96.5964 61.6161 96.712L60.1161 103.652L58.6161 110.592C58.5866 110.708 58.5204 110.811 58.4274 110.886C58.3344 110.961 58.2195 111.004 58.1 111.009H55.1091C52.1501 111.009 52.492 108.962 53.098 106.158L53.1161 106.073L53.182 105.719L53.194 105.653L53.329 104.933L53.474 104.162L53.628 103.377L54.3101 100.045L54.993 96.713C55.0061 96.6621 55.007 96.6088 54.9957 96.5575C54.9845 96.5062 54.9613 96.4582 54.9282 96.4175C54.895 96.3768 54.8527 96.3444 54.8048 96.3229C54.7568 96.3014 54.7045 96.2915 54.6521 96.294H50.315C50.1956 96.2983 50.0808 96.3415 49.9881 96.4169C49.8953 96.4923 49.8297 96.5959 49.801 96.712L48.868 101.136L47.9361 105.561L47.934 105.567L47.848 105.979C46.774 110.882 47.058 115.559 52.896 115.706L53.0661 115.709H62.229C62.3485 115.704 62.4634 115.661 62.5564 115.586C62.6494 115.511 62.7156 115.408 62.745 115.292L64.7211 106.003L66.697 96.713C66.746 96.483 66.5941 96.296 66.3591 96.295ZM21.103 96.246H16.463C16.3431 96.2503 16.2277 96.2931 16.1339 96.368C16.0401 96.4429 15.9728 96.5459 15.942 96.662L15.502 98.604L15.062 100.546C15.011 100.775 15.16 100.962 15.395 100.962H20.071C20.1906 100.957 20.3054 100.914 20.3986 100.839C20.4919 100.764 20.5586 100.661 20.589 100.545L21.014 98.604L21.439 96.663C21.488 96.434 21.338 96.246 21.103 96.246ZM19.757 102.29H15.08C14.9601 102.294 14.8447 102.337 14.7509 102.412C14.6571 102.487 14.5898 102.59 14.559 102.706L13.902 105.616L13.246 108.525L13.063 109.359L12.432 112.329L11.802 115.3C11.753 115.529 11.652 115.899 11.577 116.121C11.577 116.121 10.703 118.721 9.23405 118.691L9.05005 118.687L7.77905 118.664C7.65973 118.667 7.54354 118.708 7.44928 118.781C7.35502 118.855 7.28662 118.956 7.25405 119.071L6.76905 121.11L6.28505 123.148C6.23005 123.376 6.37805 123.564 6.61105 123.568C7.44405 123.578 9.31005 123.599 10.439 123.599C14.108 123.599 16.043 121.566 17.282 115.716L18.733 109.002L20.094 102.705C20.143 102.478 19.991 102.29 19.757 102.29ZM105.874 100.716L105.68 99.915L105.489 99.095L105.392 98.681C105.012 97.204 103.897 96.353 101.475 96.353L97.705 96.349L94.233 96.344H90.326C90.2065 96.348 90.0916 96.3909 89.9987 96.4662C89.9058 96.5414 89.8399 96.6449 89.811 96.761L89.638 97.577L89.434 98.541L89.377 98.812L87.618 107.052L85.948 114.874C85.898 115.104 85.882 115.386 85.91 115.5C85.938 115.615 86.389 115.709 86.623 115.709H90.147C90.382 115.709 90.679 115.667 90.807 115.615C90.935 115.563 91.124 115.102 91.171 114.873L91.797 111.774L92.424 108.674L92.425 108.669L92.509 108.256L93.269 104.696L93.94 101.552C93.9696 101.436 94.0357 101.333 94.1285 101.258C94.2213 101.183 94.3358 101.14 94.455 101.135L105.544 101.13C105.779 101.132 105.927 100.945 105.874 100.716ZM120.149 93.476L119.295 93.479H115.746C115.616 93.486 115.489 93.5212 115.374 93.5822C115.259 93.6431 115.158 93.7283 115.079 93.832L107.23 105.33C107.098 105.524 106.947 105.496 106.895 105.268L106.317 102.735C106.286 102.619 106.219 102.516 106.125 102.441C106.031 102.366 105.915 102.323 105.795 102.319H100.75C100.515 102.319 100.376 102.503 100.44 102.728L102.701 110.649C102.765 110.875 102.77 111.245 102.712 111.473L101.727 115.306C101.668 115.534 101.812 115.719 102.047 115.719H107.034C107.155 115.714 107.271 115.672 107.366 115.598C107.462 115.524 107.531 115.422 107.566 115.306L108.552 111.473C108.63 111.203 108.752 110.947 108.915 110.718L121.657 93.807C121.799 93.619 121.722 93.466 121.488 93.468L120.149 93.476ZM80.063 103.395V103.391C80.0457 103.512 79.986 103.622 79.8946 103.703C79.8032 103.784 79.686 103.83 79.564 103.832H73.167C72.945 103.832 72.833 103.682 72.866 103.496L72.872 103.481L72.868 103.483L72.871 103.462L72.9 103.353C73.511 101.729 74.755 100.663 77.094 100.663C79.728 100.662 80.242 101.948 80.063 103.395ZM78.186 96.011C69.975 96.011 68.029 100.995 66.937 106.026C65.846 111.154 65.939 115.947 74.437 115.947H75.467L75.723 115.946H75.783L76.803 115.943H76.821C79.065 115.934 81.316 115.917 82.227 115.91C82.3459 115.904 82.4598 115.861 82.5515 115.785C82.6433 115.709 82.7081 115.606 82.736 115.49L83.08 113.809L83.147 113.482L83.557 111.476C83.5701 111.425 83.5711 111.372 83.5598 111.321C83.5485 111.269 83.5254 111.221 83.4922 111.181C83.459 111.14 83.4167 111.108 83.3688 111.086C83.3208 111.065 83.2685 111.055 83.216 111.058H75.577C72.538 111.058 71.636 110.251 71.969 107.877H84.18L84.179 107.878L84.187 107.877C84.2837 107.873 84.3773 107.841 84.4563 107.785C84.5353 107.73 84.5963 107.652 84.632 107.562L84.661 107.456L84.66 107.457C86.473 100.618 85.953 96.012 78.186 96.011ZM39.376 103.369L39.26 103.778L38.3381 107.047L37.416 110.314C37.3779 110.429 37.3055 110.531 37.2085 110.604C37.1115 110.677 36.9945 110.72 36.873 110.725H31.993C28.291 110.725 27.389 107.829 28.291 103.559C29.192 99.191 30.959 96.476 34.603 96.201C39.583 95.825 40.579 99.327 39.376 103.369ZM42.724 110.474C42.724 110.474 45.0251 104.886 45.5471 101.66C46.2601 97.341 44.097 91.075 35.743 91.075C27.437 91.075 23.829 97.056 22.453 103.559C21.077 110.109 22.88 115.852 31.139 115.805L37.655 115.781L43.744 115.759C43.8647 115.753 43.9807 115.71 44.0762 115.636C44.1717 115.562 44.2422 115.46 44.278 115.345L45.3391 111.299C45.3981 111.071 45.2551 110.885 45.0201 110.883L44.003 110.877L42.986 110.871C42.787 110.87 42.673 110.74 42.697 110.569L42.724 110.474ZM83.844 106.733C83.8441 106.77 83.8369 106.806 83.8229 106.84C83.8089 106.874 83.7883 106.905 83.7624 106.931C83.7364 106.957 83.7056 106.978 83.6717 106.992C83.6377 107.006 83.6013 107.013 83.5645 107.013C83.5278 107.014 83.4914 107.006 83.4574 106.992C83.4234 106.978 83.3925 106.958 83.3664 106.932C83.3404 106.906 83.3197 106.875 83.3055 106.841C83.2914 106.807 83.2841 106.771 83.284 106.734C83.2839 106.66 83.3133 106.588 83.3657 106.536C83.4181 106.483 83.4893 106.454 83.5635 106.453C83.6378 106.453 83.7091 106.483 83.7617 106.535C83.8143 106.588 83.8439 106.659 83.844 106.733Z" fill="#131B28"/>
</svg>
