<svg width="128" height="128" viewBox="0 0 128 128" fill="none" xmlns="http://www.w3.org/2000/svg">
<g clip-path="url(#clip0_1_24)">
<path d="M114.313 55.254C114.261 55.254 114.211 55.2693 114.168 55.298L111.822 56.668C111.778 56.6954 111.742 56.7337 111.717 56.7793C111.692 56.8249 111.679 56.8761 111.68 56.928V59.668C111.68 59.784 111.735 59.872 111.822 59.93L114.168 61.298C114.211 61.3268 114.261 61.3422 114.313 61.3422C114.365 61.3422 114.415 61.3268 114.458 61.298L116.8 59.93C116.844 59.9021 116.881 59.8633 116.906 59.8173C116.932 59.7713 116.945 59.7196 116.945 59.667V56.93C116.946 56.8778 116.932 56.8264 116.907 56.7808C116.882 56.7352 116.845 56.697 116.8 56.67L114.457 55.299C114.414 55.2705 114.364 55.2542 114.313 55.254ZM63.22 71.638C62.793 71.638 62.368 71.742 62.006 71.946L50.457 78.673C50.087 78.8904 49.7802 79.2008 49.5672 79.5734C49.3543 79.946 49.2425 80.3679 49.243 80.797V94.22C49.243 95.094 49.705 95.91 50.457 96.348L53.497 98.094C54.973 98.822 55.494 98.82 56.159 98.82C58.329 98.82 59.574 97.481 59.574 95.18V81.935C59.5727 81.8428 59.5357 81.7548 59.4708 81.6893C59.4059 81.6238 59.3182 81.5861 59.226 81.584H57.752C57.6595 81.5856 57.5712 81.6231 57.5059 81.6886C57.4405 81.7541 57.4033 81.8425 57.402 81.935V95.183C57.402 96.202 56.333 97.223 54.626 96.35L51.471 94.515C51.355 94.457 51.296 94.309 51.296 94.193V80.767C51.296 80.651 51.355 80.507 51.471 80.448L63.016 73.751C63.103 73.693 63.249 73.693 63.365 73.751L74.913 80.448C75.028 80.507 75.085 80.622 75.085 80.768V94.192C75.085 94.337 75.028 94.456 74.913 94.514L63.365 101.241C63.278 101.299 63.132 101.299 63.016 101.241L60.065 99.462C59.978 99.404 59.862 99.375 59.775 99.433C58.965 99.899 58.823 99.96 58.041 100.222C57.867 100.28 57.578 100.395 58.156 100.715L62.006 103.017C62.382 103.22 62.786 103.336 63.22 103.336C63.654 103.336 64.087 103.221 64.434 103.076L75.983 96.349C76.3536 96.1313 76.6607 95.8203 76.8737 95.4469C77.0867 95.0735 77.1982 94.6509 77.197 94.221V80.797C77.197 79.923 76.735 79.11 75.983 78.673L64.434 71.946C64.062 71.742 63.6442 71.636 63.22 71.638ZM81.25 77.768C80.6573 77.7704 80.0898 78.008 79.6722 78.4286C79.2547 78.8492 79.0211 79.4183 79.023 80.011C79.0214 80.6035 79.255 81.1725 79.6726 81.5928C80.0902 82.0132 80.6575 82.2506 81.25 82.253C82.467 82.253 83.478 81.234 83.478 80.011C83.4749 79.4198 83.2396 78.8534 82.8228 78.4341C82.4061 78.0147 81.8412 77.7748 81.25 77.768ZM81.22 78.147C81.4665 78.144 81.7112 78.19 81.9398 78.2823C82.1684 78.3747 82.3763 78.5116 82.5515 78.685C82.7267 78.8585 82.8657 79.065 82.9604 79.2927C83.0551 79.5203 83.1035 79.7645 83.103 80.011C83.103 81.031 82.263 81.905 81.221 81.905C80.209 81.905 79.369 81.059 79.369 80.011C79.369 78.963 80.237 78.147 81.22 78.147ZM80.411 78.758V81.32H80.905V80.304H81.339C81.513 80.304 81.57 80.362 81.599 80.507C81.599 80.537 81.685 81.177 81.685 81.293H82.205C82.147 81.177 82.118 80.827 82.089 80.623C82.061 80.303 82.033 80.07 81.685 80.041C81.859 79.982 82.148 79.895 82.148 79.429C82.148 78.759 81.568 78.759 81.28 78.759L80.411 78.758ZM80.846 79.166H81.25C81.396 79.166 81.626 79.166 81.626 79.515C81.626 79.631 81.57 79.866 81.25 79.866H80.845L80.846 79.166ZM66.376 81.176C63.076 81.176 61.108 82.574 61.108 84.933C61.108 87.467 63.076 88.163 66.231 88.484C70.021 88.863 70.311 89.417 70.311 90.174C70.311 91.484 69.267 92.038 66.836 92.038C63.768 92.038 63.103 91.28 62.871 89.737C62.871 89.562 62.729 89.447 62.555 89.447H61.05C60.958 89.4481 60.8702 89.4853 60.8054 89.5506C60.7407 89.6159 60.7043 89.7041 60.704 89.796C60.704 91.776 61.745 94.106 66.811 94.106C70.456 94.106 72.569 92.648 72.569 90.086C72.569 87.581 70.889 86.912 67.331 86.446C63.741 85.98 63.366 85.718 63.366 84.874C63.366 84.175 63.684 83.244 66.346 83.244C68.719 83.244 69.615 83.769 69.963 85.37C69.9804 85.4423 70.0211 85.5068 70.0787 85.5538C70.1363 85.6007 70.2077 85.6275 70.282 85.63H71.815C71.903 85.63 71.99 85.573 72.049 85.515C72.1015 85.4371 72.1309 85.3459 72.134 85.252C71.903 82.457 70.081 81.176 66.376 81.176Z" fill="#5FA04E"/>
<path d="M86.072 24.664C85.9489 24.6622 85.8275 24.6929 85.72 24.753C85.6083 24.8186 85.5152 24.9116 85.4496 25.0233C85.384 25.135 85.348 25.2615 85.345 25.391V44.32C85.345 44.494 85.255 44.67 85.082 44.786C85.002 44.8289 84.9127 44.8514 84.822 44.8514C84.7313 44.8514 84.6419 44.8289 84.562 44.786L81.496 43.011C81.2709 42.8825 81.0162 42.8148 80.757 42.8148C80.4978 42.8148 80.2431 42.8825 80.018 43.011L67.75 50.146C67.523 50.274 67.3338 50.4597 67.2016 50.6843C67.0694 50.9089 66.9988 51.1644 66.997 51.425V65.665C66.997 66.189 67.287 66.685 67.75 66.947L80.02 74.082C80.2449 74.2104 80.4995 74.2779 80.7585 74.2779C81.0175 74.2779 81.272 74.2104 81.497 74.082L93.766 66.947C94.229 66.685 94.519 66.189 94.519 65.665V30.168C94.519 29.615 94.229 29.118 93.766 28.857L86.446 24.753C86.3302 24.695 86.2015 24.6645 86.072 24.664ZM13.687 42.43C13.456 42.43 13.225 42.514 13.023 42.63L0.753 49.739C0.522395 49.8702 0.331015 50.0607 0.198637 50.2906C0.0662583 50.5206 -0.00231613 50.7817 -4.57279e-07 51.047L0.0299995 70.149C0.0299995 70.412 0.173 70.674 0.405 70.791C0.512551 70.8616 0.638374 70.8991 0.767 70.8991C0.895625 70.8991 1.02145 70.8616 1.129 70.791L8.423 66.598C8.886 66.336 9.173 65.84 9.173 65.316V56.376C9.173 55.852 9.463 55.356 9.927 55.094L13.023 53.289C13.254 53.143 13.516 53.085 13.776 53.085C14.036 53.085 14.297 53.143 14.5 53.289L17.596 55.094C18.059 55.356 18.349 55.852 18.349 56.376V65.316C18.349 65.84 18.637 66.336 19.099 66.598L26.335 70.791C26.4475 70.8628 26.5781 70.9009 26.7115 70.9009C26.8449 70.9009 26.9755 70.8628 27.088 70.791C27.2032 70.7284 27.2991 70.6355 27.3654 70.5223C27.4316 70.4092 27.4657 70.2801 27.464 70.149V51.047C27.464 50.523 27.174 50.027 26.71 49.764L14.47 42.63C14.2638 42.5206 14.0383 42.4523 13.806 42.429L13.687 42.43ZM114.354 42.64C114.101 42.64 113.85 42.706 113.618 42.838L101.346 49.969C100.883 50.231 100.596 50.727 100.596 51.252V65.492C100.596 66.016 100.883 66.512 101.346 66.774L113.53 73.761C113.749 73.8897 113.999 73.9575 114.253 73.9575C114.508 73.9575 114.758 73.8897 114.977 73.761L122.357 69.628C122.472 69.5652 122.568 69.4723 122.634 69.3592C122.7 69.246 122.734 69.117 122.732 68.986C122.733 68.8554 122.699 68.7268 122.633 68.614C122.567 68.5013 122.472 68.4086 122.357 68.346L110.03 61.21C109.918 61.1442 109.825 61.0507 109.759 60.9384C109.693 60.8262 109.657 60.699 109.655 60.569V56.113C109.654 55.9824 109.688 55.8538 109.754 55.741C109.82 55.6283 109.915 55.5356 110.03 55.473L113.88 53.259C113.992 53.1873 114.123 53.1491 114.256 53.1491C114.39 53.1491 114.521 53.1873 114.633 53.259L118.479 55.472C118.592 55.5375 118.686 55.6308 118.752 55.7431C118.818 55.8553 118.854 55.9827 118.857 56.113V59.608C118.857 59.871 119.001 60.133 119.232 60.249C119.345 60.321 119.475 60.3592 119.609 60.3592C119.743 60.3592 119.873 60.321 119.986 60.249L127.277 55.969C127.501 55.8386 127.685 55.651 127.813 55.4255C127.94 55.2001 128.005 54.9449 128.001 54.686V51.221C128.001 50.697 127.711 50.204 127.277 49.941L115.093 42.837C114.868 42.7084 114.614 42.6402 114.355 42.639L114.354 42.64ZM80.757 53.274C80.822 53.274 80.888 53.289 80.947 53.319L85.141 55.765C85.257 55.823 85.316 55.967 85.316 56.084V60.976C85.316 61.122 85.257 61.24 85.141 61.298L80.946 63.744C80.8872 63.7728 80.8225 63.7878 80.757 63.7878C80.6915 63.7878 80.6268 63.7728 80.568 63.744L76.373 61.298C76.257 61.24 76.198 61.093 76.198 60.976V56.084C76.198 55.938 76.258 55.823 76.373 55.764L80.568 53.319C80.6266 53.2886 80.6909 53.2731 80.757 53.274Z" fill="#333333"/>
<path d="M47.982 42.8931C47.7575 42.7639 47.503 42.6959 47.244 42.6959C46.985 42.6959 46.7305 42.7639 46.506 42.8931L34.322 49.9701C34.0987 50.1004 33.914 50.2876 33.7868 50.5127C33.6596 50.7377 33.5945 50.9926 33.598 51.2511V65.4321C33.598 65.9571 33.888 66.4521 34.322 66.7141L46.506 73.7901C46.7305 73.9192 46.985 73.9872 47.244 73.9872C47.503 73.9872 47.7575 73.9192 47.982 73.7901L60.165 66.7141C60.628 66.4521 60.889 65.9571 60.889 65.4321V51.2511C60.889 50.7271 60.599 50.2311 60.165 49.9701L47.982 42.8931Z" fill="url(#paint0_linear_1_24)"/>
<path d="M60.194 49.97L47.953 42.893C47.8329 42.8322 47.7069 42.7836 47.577 42.748L33.859 66.364C33.975 66.51 34.119 66.626 34.264 66.714L46.506 73.79C46.853 73.994 47.258 74.052 47.634 73.935L60.513 50.232C60.4284 50.1212 60.3192 50.0315 60.194 49.97Z" fill="url(#paint1_linear_1_24)"/>
<path d="M60.194 66.713C60.542 66.509 60.802 66.16 60.918 65.781L47.518 42.718C47.172 42.66 46.795 42.689 46.477 42.893L34.322 49.94L47.432 73.993C47.605 73.964 47.808 73.906 47.982 73.818L60.194 66.713Z" fill="url(#paint2_linear_1_24)"/>
</g>
<defs>
<linearGradient id="paint0_linear_1_24" x1="52.2054" y1="48.1628" x2="41.0785" y2="70.7206" gradientUnits="userSpaceOnUse">
<stop stop-color="#3F873F"/>
<stop offset="0.33" stop-color="#3F8B3D"/>
<stop offset="0.637" stop-color="#3E9638"/>
<stop offset="0.934" stop-color="#3DA92E"/>
<stop offset="1" stop-color="#3DAE2B"/>
</linearGradient>
<linearGradient id="paint1_linear_1_24" x1="45.3925" y1="59.9976" x2="76.4377" y2="37.2007" gradientUnits="userSpaceOnUse">
<stop offset="0.138" stop-color="#3F873F"/>
<stop offset="0.402" stop-color="#52A044"/>
<stop offset="0.713" stop-color="#64B749"/>
<stop offset="0.908" stop-color="#6ABF4B"/>
</linearGradient>
<linearGradient id="paint2_linear_1_24" x1="33.1523" y1="58.3367" x2="61.3447" y2="58.3367" gradientUnits="userSpaceOnUse">
<stop offset="0.092" stop-color="#6ABF4B"/>
<stop offset="0.287" stop-color="#64B749"/>
<stop offset="0.598" stop-color="#52A044"/>
<stop offset="0.862" stop-color="#3F873F"/>
</linearGradient>
<clipPath id="clip0_1_24">
<rect width="128" height="128" fill="white"/>
</clipPath>
</defs>
</svg>
