<svg width="32" height="32" viewBox="0 0 32 32" fill="none" xmlns="http://www.w3.org/2000/svg">
<path d="M25.514 12.8459C25.462 11.9079 25.723 11.0209 25.305 10.2919C24.262 8.46695 21.656 7.42495 16.442 7.42495V7.37195V7.42395C10.707 7.42395 8.25698 8.46695 7.21498 10.2909C6.8607 11.0938 6.70005 11.9686 6.74598 12.8449C6.55411 13.647 6.46639 14.4705 6.48498 15.2949C6.64098 16.4419 6.74598 17.5889 6.90198 18.6309C7.05798 19.5169 8.30998 20.1949 8.46598 21.0309C8.77898 23.2729 10.76 24.3149 16.494 24.3149V24.5759H16.394V24.3149C21.607 24.3149 23.794 23.2719 24.11 21.0309C24.21 20.1969 25.257 19.5189 25.41 18.6309C25.566 17.5879 25.619 16.4409 25.775 15.2949C25.7736 14.4717 25.6862 13.6509 25.514 12.8459Z" fill="#EFCCA3"/>
<path d="M16.182 13.6801C17.0349 13.7579 17.8223 14.1703 18.372 14.8271C19.102 15.4531 20.301 15.8701 20.822 16.4431C21.4569 16.9685 21.9424 17.6517 22.23 18.4241C22.4283 19.1552 22.5334 19.9085 22.543 20.6661C22.543 20.9271 22.699 20.8751 23.116 20.6661C23.9421 20.1622 24.6816 19.5284 25.306 18.7891C25.15 19.6751 24.055 20.4571 23.951 21.2891C23.638 23.5311 21.451 24.6251 16.079 24.6251H16.392" fill="#CCAC8D"/>
<path d="M19.519 11.908C19.728 12.586 20.405 14.932 19.05 14.15C19.5441 14.5385 19.878 15.0952 19.9881 15.714C20.0534 16.0459 20.2095 16.3532 20.439 16.6018C20.6685 16.8503 20.9624 17.0304 21.288 17.122C22.1885 17.2554 23.1054 17.0306 23.842 16.496C24.2739 16.0814 24.5699 15.5456 24.6909 14.9593C24.812 14.3729 24.7524 13.7637 24.5201 13.212C24.3614 12.7628 24.0743 12.3702 23.6944 12.0829C23.3144 11.7955 22.8584 11.6262 22.383 11.596C21.4 11.334 19.31 11.126 19.519 11.908Z" fill="#CCAC8D"/>
<path d="M22.178 16.339C23.2434 16.339 24.107 15.4753 24.107 14.41C24.107 13.3446 23.2434 12.481 22.178 12.481C21.1127 12.481 20.249 13.3446 20.249 14.41C20.249 15.4753 21.1127 16.339 22.178 16.339Z" fill="black"/>
<path d="M21.656 14.0451C21.9438 14.0451 22.177 13.8118 22.177 13.5241C22.177 13.2363 21.9438 13.0031 21.656 13.0031C21.3683 13.0031 21.135 13.2363 21.135 13.5241C21.135 13.8118 21.3683 14.0451 21.656 14.0451Z" fill="white"/>
<path d="M19.2061 14.306C20.1868 14.9943 21.0951 15.7803 21.9171 16.652C22.8551 17.852 22.8551 18.06 22.8551 18.06L22.1771 18.373C21.6702 17.3839 20.9382 16.5276 20.0401 15.873C18.8401 15.195 18.6851 14.622 18.6851 14.622L19.2061 14.306Z" fill="#EFCCA3"/>
<path d="M16.235 13.6801C15.3371 13.7553 14.4999 14.1646 13.889 14.8271C13.159 15.4531 11.856 15.8701 11.389 16.4431C10.7385 16.9653 10.2353 17.6481 9.92905 18.4241C9.73077 19.1552 9.6256 19.9085 9.61605 20.6661C9.61605 20.9271 9.66805 20.9791 8.99005 20.6661C8.15236 20.1782 7.4103 19.5422 6.80005 18.7891C6.95605 19.6751 8.05105 20.4571 8.15505 21.2891C8.46805 23.4791 10.655 24.5731 16.027 24.5731H16.392" fill="#CCAC8D"/>
<path d="M21.239 17.277C20.641 16.4834 19.8702 15.8363 18.985 15.3846C18.0999 14.9329 17.1236 14.6886 16.13 14.67C15.1377 14.6951 14.1636 14.9423 13.2795 15.3934C12.3953 15.8446 11.6236 16.4883 11.021 17.277C10.6197 17.6948 10.3175 18.1976 10.1369 18.7481C9.95639 19.2986 9.90207 19.8827 9.978 20.457C9.978 25.097 11.594 23.689 12.689 24.263C13.7798 24.6257 14.9393 24.7328 16.078 24.576C17.2166 24.7364 18.377 24.6293 19.467 24.263C20.562 23.69 22.178 25.097 22.178 20.457C22.3069 19.8909 22.2882 19.3012 22.1238 18.7444C21.9594 18.1876 21.6547 17.6823 21.239 17.277Z" fill="#56332B"/>
<path d="M16.026 15.974C15.9861 16.8426 15.8283 17.7018 15.557 18.528L16.13 18.372L16.026 15.974Z" fill="#442823"/>
<path d="M16.182 15.974C16.2219 16.8426 16.3797 17.7018 16.651 18.528L16.078 18.372L16.182 15.974Z" fill="#442823"/>
<path d="M14.358 15.453C14.149 14.932 14.931 14.098 16.183 14.098C17.435 14.098 18.216 14.932 18.008 15.453C17.8 15.974 16.965 16.131 16.183 16.131C15.348 16.13 14.566 15.974 14.358 15.453Z" fill="#56332B"/>
<path d="M16.182 15.974C16.182 15.874 16.912 15.874 17.329 15.609C17.329 15.609 16.495 15.87 16.338 15.765C16.2303 15.6694 16.1569 15.5412 16.129 15.4C16.101 15.5412 16.0276 15.6694 15.92 15.765C15.764 15.865 14.825 15.609 14.825 15.609C15.2339 15.6991 15.6351 15.8211 16.025 15.974V16.391C15.9924 17.0703 16.0259 17.7512 16.125 18.424C16.281 18.633 16.225 16.964 16.225 16.391C16.1882 16.2553 16.1736 16.1144 16.182 15.974Z" fill="black"/>
<path d="M16.1821 18.945C16.7713 19.0236 17.3291 19.2576 17.7981 19.623C17.3904 19.0945 16.824 18.7107 16.1821 18.528C15.4461 18.6881 14.7957 19.1157 14.3571 19.728C14.8706 19.2858 15.5078 19.0124 16.1821 18.945Z" fill="#7F4A41"/>
<path d="M16.0781 22.8C15.2604 22.7535 14.453 22.5958 13.6781 22.331C13.5221 22.279 13.3651 22.383 13.2091 22.331C11.9491 21.9741 10.8354 21.2257 10.0291 20.194V20.403C10.0291 25.043 11.6451 23.635 12.7401 24.209C13.8308 24.5716 14.9903 24.6787 16.1291 24.522C17.2677 24.6824 18.428 24.5752 19.5181 24.209C20.6131 23.636 22.2291 25.043 22.2291 20.403V19.934C21.4583 21.0681 20.3165 21.8983 19.0001 22.282C18.8441 22.334 18.5831 22.23 18.4271 22.23C17.683 22.5547 16.8882 22.7476 16.0781 22.8Z" fill="#442823"/>
<path d="M13.941 20.3C13.941 20.3 13.368 21.9681 13.785 22.7001L13.264 22.491C13.4349 21.7449 13.6612 21.0125 13.941 20.3ZM18.32 20.3C18.32 20.3 18.893 21.9681 18.476 22.7001L19 22.491C18.8533 21.7383 18.6253 21.0036 18.32 20.3Z" fill="#442823"/>
<path d="M12.585 11.908C12.376 12.586 11.699 14.932 13.054 14.15C12.56 14.5385 12.2261 15.0952 12.116 15.714C12.0507 16.0459 11.8946 16.3532 11.6651 16.6018C11.4356 16.8503 11.1417 17.0304 10.816 17.122C9.91482 17.2576 8.99636 17.0343 8.25804 16.5C7.82619 16.0854 7.5302 15.5496 7.40916 14.9633C7.28811 14.377 7.3477 13.7678 7.58004 13.216C7.73864 12.7668 8.02576 12.3742 8.40571 12.0869C8.78565 11.7996 9.24166 11.6303 9.71704 11.6C10.709 11.334 12.794 11.126 12.585 11.908Z" fill="#CCAC8D"/>
<path d="M16.1301 18.528C16.7764 18.7095 17.3543 19.0789 17.7905 19.5893C18.2267 20.0998 18.5015 20.7282 18.5801 21.395V21.295C18.5638 20.6025 18.3123 19.9363 17.8671 19.4057C17.4218 18.8752 16.8092 18.512 16.1301 18.376C15.4467 18.5034 14.8289 18.8641 14.382 19.3965C13.9352 19.9289 13.687 20.5999 13.6801 21.295V21.395C13.7673 20.7313 14.0453 20.1072 14.4801 19.5983C14.915 19.0895 15.4881 18.7177 16.1301 18.528Z" fill="black"/>
<path d="M16.6241 15.4409C16.7076 15.4194 16.7402 15.2662 16.697 15.0988C16.6539 14.9314 16.5513 14.8132 16.4678 14.8347C16.3844 14.8562 16.3518 15.0094 16.3949 15.1767C16.4381 15.3441 16.5407 15.4624 16.6241 15.4409Z" fill="#331712"/>
<path d="M15.7587 15.1932C15.8099 15.0281 15.7847 14.8735 15.7024 14.848C15.6201 14.8225 15.5119 14.9356 15.4607 15.1007C15.4094 15.2658 15.4346 15.4204 15.5169 15.4459C15.5992 15.4714 15.7074 15.3583 15.7587 15.1932Z" fill="#331712"/>
<path d="M10.0311 16.339C11.0964 16.339 11.9601 15.4753 11.9601 14.41C11.9601 13.3446 11.0964 12.481 10.0311 12.481C8.96569 12.481 8.10205 13.3446 8.10205 14.41C8.10205 15.4753 8.96569 16.339 10.0311 16.339Z" fill="black"/>
<path d="M10.552 14.0451C10.8397 14.0451 11.073 13.8118 11.073 13.5241C11.073 13.2363 10.8397 13.0031 10.552 13.0031C10.2643 13.0031 10.031 13.2363 10.031 13.5241C10.031 13.8118 10.2643 14.0451 10.552 14.0451Z" fill="white"/>
<path d="M16.7 14.41C16.7 14.41 16.179 14.619 16.074 14.671C15.8544 14.6129 15.6438 14.5251 15.448 14.41H16.7Z" fill="#7F4A41"/>
<path d="M12.9 14.306C11.9192 14.9943 11.0109 15.7803 10.189 16.652C9.25098 17.852 9.25098 18.06 9.25098 18.06L9.92898 18.373C10.4358 17.3839 11.1678 16.5276 12.066 15.873C13.266 15.195 13.421 14.622 13.421 14.622L12.9 14.306Z" fill="#EFCCA3"/>
<path d="M9.09196 10.813C8.72859 11.7748 8.04816 12.584 7.16296 13.107C7.71586 13.0415 8.22304 12.7678 8.58137 12.3417C8.9397 11.9156 9.12227 11.3689 9.09196 10.813ZM22.908 10.813C23.2713 11.7748 23.9518 12.584 24.837 13.107C24.2841 13.0415 23.7769 12.7678 23.4186 12.3417C23.0602 11.9156 22.8777 11.3689 22.908 10.813ZM19.31 13.836C18.472 13.0344 17.3884 12.5383 16.234 12.428H16.39C15.8126 12.4209 15.241 12.5438 14.7176 12.7875C14.1941 13.0312 13.7322 13.3896 13.366 13.836C14.2262 13.155 15.2928 12.7871 16.39 12.793C17.4399 12.8692 18.4493 13.2298 19.31 13.836ZM17.746 10.969C17.3641 10.4675 16.8042 10.1317 16.182 10.031H16.338C16.026 10.042 15.7224 10.1343 15.4572 10.2988C15.1919 10.4634 14.9743 10.6944 14.826 10.969C15.2223 10.5546 15.7649 10.3113 16.338 10.291C16.6073 10.2977 16.8721 10.3617 17.1149 10.4785C17.3576 10.5954 17.5728 10.7626 17.746 10.969ZM10.031 17.746C9.48445 18.027 8.85484 18.1013 8.25796 17.955H8.04996C7.63781 17.5292 7.33396 17.0107 7.16396 16.443C7.38051 16.9889 7.80016 17.4295 8.33477 17.6725C8.86938 17.9155 9.47734 17.9418 10.031 17.746ZM22.126 17.746C22.6725 18.027 23.3021 18.1013 23.899 17.955H23.69C23.9966 17.832 24.2621 17.6248 24.4559 17.3572C24.6497 17.0896 24.7638 16.7727 24.785 16.443C24.7048 16.7091 24.5706 16.9559 24.3908 17.1678C24.2109 17.3796 23.9892 17.5521 23.7396 17.6744C23.4901 17.7967 23.2179 17.8662 22.9403 17.8785C22.6626 17.8909 22.3854 17.8457 22.126 17.746Z" fill="#CCAC8D"/>
<path d="M11.23 10.709C11.9746 10.5628 12.7434 10.5971 13.472 10.809C14.41 11.122 13.681 12.373 13.837 12.425C14.1377 12.1515 14.493 11.945 14.8796 11.8191C15.2661 11.6933 15.6749 11.651 16.079 11.695C17.852 11.795 18.06 12.581 18.321 12.425C18.582 12.325 18.06 10.235 20.771 10.705C20.771 10.705 18.008 9.975 18.112 11.956C17.5412 11.5838 16.8783 11.3773 16.1971 11.3597C15.516 11.342 14.8433 11.5139 14.254 11.856C14.254 11.856 14.827 9.927 11.23 10.709ZM10.5 8C10.5 8 8.09998 10.972 7.78898 12.118C7.42398 13.265 7.16298 18.061 6.85098 18.739L5.75598 14.045L7.78898 9.145L10.5 8ZM21.656 8C21.656 8 24.056 10.972 24.367 12.118C24.732 13.265 24.993 18.061 25.305 18.739L26.4 14.045L24.367 9.145L21.656 8Z" fill="#CCAC8D"/>
<path d="M21.5 7.99997C22.9556 9.23571 24.0836 10.8117 24.784 12.588C25.514 15.038 25.201 18.062 25.775 18.427C26.609 18.948 27.495 15.82 27.808 15.508C28.277 14.987 29.893 13.631 29.998 13.371C30.103 13.111 26.766 9.46097 25.254 8.73097C23.585 7.89297 21.4 7.78897 21.5 7.99997Z" fill="#56332B"/>
<path d="M23.6899 9.30005C25.5345 11.817 26.5709 14.8349 26.6619 17.954L27.8619 15.504C26.9611 13.1457 25.5343 11.0239 23.6899 9.30005Z" fill="#442823"/>
<path d="M10.5001 7.99997C9.04447 9.23571 7.91644 10.8117 7.21605 12.588C6.48605 15.038 6.79905 18.062 6.22505 18.427C5.39105 18.948 4.50505 15.82 4.19205 15.508C3.72305 14.987 2.10706 13.631 2.00206 13.371C1.89706 13.111 5.23405 9.46097 6.74605 8.73097C8.41505 7.89297 10.6001 7.78897 10.5001 7.99997Z" fill="#56332B"/>
<path d="M8.31002 9.30005C6.46546 11.817 5.42903 14.8349 5.33801 17.954L4.14001 15.5C5.04079 13.1433 6.46692 11.023 8.31002 9.30005Z" fill="#442823"/>
<path d="M6.64197 18.0069C6.72394 18.562 6.91897 19.0943 7.21497 19.5709C7.57997 19.9359 7.31497 19.2579 7.31497 19.2579C7.31497 19.2579 6.94997 19.0489 7.00197 17.5379C7.05397 16.0269 6.64197 18.0069 6.64197 18.0069ZM25.41 18.0069C25.328 18.562 25.133 19.0943 24.837 19.5709C24.472 19.9359 24.737 19.2579 24.737 19.2579C24.737 19.2579 25.102 19.0489 25.05 17.5379C24.993 16.0779 25.41 18.0069 25.41 18.0069Z" fill="#CCAC8D"/>
<path d="M13.889 17.277C13.9752 17.277 14.045 17.2071 14.045 17.121C14.045 17.0348 13.9752 16.965 13.889 16.965C13.8029 16.965 13.733 17.0348 13.733 17.121C13.733 17.2071 13.8029 17.277 13.889 17.277Z" fill="#442823"/>
<path d="M12.8459 18.3721C12.9321 18.3721 13.0019 18.3022 13.0019 18.2161C13.0019 18.1299 12.9321 18.0601 12.8459 18.0601C12.7598 18.0601 12.6899 18.1299 12.6899 18.2161C12.6899 18.3022 12.7598 18.3721 12.8459 18.3721Z" fill="#442823"/>
<path d="M12.533 17.277C12.6191 17.277 12.689 17.2071 12.689 17.121C12.689 17.0348 12.6191 16.965 12.533 16.965C12.4468 16.965 12.377 17.0348 12.377 17.121C12.377 17.2071 12.4468 17.277 12.533 17.277Z" fill="#442823"/>
<path d="M18.1641 17.277C18.2502 17.277 18.3201 17.2071 18.3201 17.121C18.3201 17.0348 18.2502 16.965 18.1641 16.965C18.0779 16.965 18.0081 17.0348 18.0081 17.121C18.0081 17.2071 18.0779 17.277 18.1641 17.277Z" fill="#442823"/>
<path d="M19.154 18.3721C19.2402 18.3721 19.31 18.3022 19.31 18.2161C19.31 18.1299 19.2402 18.0601 19.154 18.0601C19.0679 18.0601 18.998 18.1299 18.998 18.2161C18.998 18.3022 19.0679 18.3721 19.154 18.3721Z" fill="#442823"/>
<path d="M19.467 17.277C19.5532 17.277 19.623 17.2071 19.623 17.121C19.623 17.0348 19.5532 16.965 19.467 16.965C19.3809 16.965 19.311 17.0348 19.311 17.121C19.311 17.2071 19.3809 17.277 19.467 17.277Z" fill="#442823"/>
</svg>
